<svg xmlns="http://www.w3.org/2000/svg" width="1200" height="800" viewBox="0 0 1200 800">
  <rect width="100%" height="100%" fill="#fff"/>
  <text x="40" y="60" font-family="Arial" font-size="20" fill="#ff6f00">Swiggy — Homepage Vibe</text>
  <rect x="40" y="90" width="1120" height="120" rx="8" fill="#fff3e0" stroke="#ffd8a6"/>
  <text x="60" y="130" font-family="Arial" font-size="16" fill="#000">Mood cards (horizontal scroll):</text>
  <!-- mood cards -->
  <g transform="translate(60,150)">
    <rect x="0" y="0" width="160" height="80" rx="8" fill="#fff" stroke="#ddd"/>
    <text x="18" y="48" font-family="Arial" font-size="14">Comforting</text>
    <rect x="180" y="0" width="160" height="80" rx="8" fill="#fff" stroke="#ddd"/>
    <text x="198" y="48" font-family="Arial" font-size="14">Indulgent</text>
    <rect x="360" y="0" width="160" height="80" rx="8" fill="#fff" stroke="#ddd"/>
    <text x="378" y="48" font-family="Arial" font-size="14">Healthy</text>
  </g>
  <text x="40" y="300" font-family="Arial" font-size="16">Hero carousel (Vibe highlights):</text>
  <rect x="40" y="320" width="1120" height="220" rx="12" fill="#fff7f0" stroke="#ffd1b3"/>
  <text x="60" y="360" font-family="Arial" font-size="14">Featured: Comforting Picks for Tonight</text>
  <text x="40" y="560" font-family="Arial" font-size="16">Top results (ranked):</text>
  <g transform="translate(60,580)">
    <rect x="0" y="0" width="1080" height="80" rx="8" fill="#fff" stroke="#eee"/>
    <text x="12" y="48" font-family="Arial" font-size="14">1 • Local Favorite • 28 mins • ★4.4 • Mood: Comforting</text>
    <rect x="0" y="100" width="1080" height="80" rx="8" fill="#fff" stroke="#eee"/>
    <text x="12" y="148" font-family="Arial" font-size="14">2 • Sponsored • 32 mins • ★4.2 • Mood: Comforting</text>
  </g>
  <text x="40" y="720" font-family="Arial" font-size="12" fill="#999">Note: this is a wireframe for review; colors indicate mood accents and not final assets.</text>
</svg>