<svg xmlns="http://www.w3.org/2000/svg" viewBox="0 0 400 1100" width="400" height="1100">
  <!-- Background -->
  <rect width="400" height="1100" fill="#ffffff"/>
  
  <!-- Header -->
  <rect width="400" height="70" fill="#ff6f00"/>
  <text x="20" y="45" font-family="Arial, sans-serif" font-size="20" font-weight="bold" fill="#fff">← Comforting</text>
  <circle cx="375" cy="35" r="18" fill="rgba(255,255,255,0.3)"/>
  
  <!-- Filter Bar -->
  <rect x="15" y="85" width="370" height="45" fill="#f5f5f5" rx="8"/>
  <text x="30" y="112" font-family="Arial, sans-serif" font-size="12" fill="#666">Delivery time • Price • Dietary</text>
  
  <!-- Hero Section - "Celebration" mood -->
  <rect x="0" y="145" width="400" height="180" fill="linear-gradient(135deg, #ff6f00 0%, #ffb74d 100%)" rx="0"/>
  <text x="25" y="180" font-family="Arial, sans-serif" font-size="24" font-weight="bold" fill="#fff">🎉 Season of Celebration</text>
  <text x="25" y="210" font-family="Arial, sans-serif" font-size="13" fill="rgba(255,255,255,0.95)">Premium picks for special moments</text>
  
  <!-- Featured Cards Carousel (show 1, hint second) -->
  <rect x="15" y="230" width="360" height="110" fill="#fff" stroke="#ff6f00" stroke-width="2" rx="12"/>
  <rect x="15" y="230" width="100" height="110" fill="#ddd" rx="12"/>
  <text x="125" y="255" font-family="Arial, sans-serif" font-size="14" font-weight="bold" fill="#000">The Celebration Kitchen</text>
  <text x="125" y="275" font-family="Arial, sans-serif" font-size="11" fill="#666">Premium cuisine • Ambiance ★★★</text>
  <text x="125" y="295" font-family="Arial, sans-serif" font-size="10" fill="#999">45 mins • 2km away • ₹600-1000/person</text>
  
  <!-- CTA on featured card -->
  <rect x="280" y="305" width="80" height="28" fill="#ff6f00" rx="6"/>
  <text x="320" y="322" font-family="Arial, sans-serif" font-size="11" font-weight="bold" fill="#fff" text-anchor="middle">Explore</text>
  
  <!-- Results Section -->
  <text x="20" y="380" font-family="Arial, sans-serif" font-size="15" font-weight="bold" fill="#333">Best for Celebration (42)</text>
  
  <!-- Result Card 1 -->
  <rect x="15" y="405" width="370" height="110" fill="#fff" stroke="#f0f0f0" stroke-width="1" rx="10"/>
  <rect x="15" y="405" width="100" height="110" fill="#ddd" rx="10"/>
  
  <text x="125" y="428" font-family="Arial, sans-serif" font-size="13" font-weight="bold" fill="#000">Celebration Cafe</text>
  <text x="125" y="447" font-family="Arial, sans-serif" font-size="11" fill="#666">Multicuisine • Ideal for Events</text>
  <text x="125" y="465" font-family="Arial, sans-serif" font-size="10" fill="#999">35 mins • 1.2km • Free delivery on ₹500+</text>
  
  <!-- Mood & Rating -->
  <rect x="125" y="475" width="70" height="22" fill="#fff3e0" rx="4"/>
  <text x="160" y="489" font-family="Arial, sans-serif" font-size="10" font-weight="bold" fill="#ff6f00" text-anchor="middle">Celebration</text>
  
  <circle cx="350" cy="438" r="22" fill="#ffb74d"/>
  <text x="350" y="445" font-family="Arial, sans-serif" font-size="12" font-weight="bold" fill="#333" text-anchor="middle">4.6</text>
  
  <!-- Result Card 2 -->
  <rect x="15" y="530" width="370" height="110" fill="#fff" stroke="#f0f0f0" stroke-width="1" rx="10"/>
  <rect x="15" y="530" width="100" height="110" fill="#ddd" rx="10"/>
  
  <text x="125" y="553" font-family="Arial, sans-serif" font-size="13" font-weight="bold" fill="#000">Grand Dining Hall</text>
  <text x="125" y="572" font-family="Arial, sans-serif" font-size="11" fill="#666">Fine Dining • Banquet Space</text>
  <text x="125" y="590" font-family="Arial, sans-serif" font-size="10" fill="#999">50 mins • 3km • Pre-booking available</text>
  
  <!-- Mood & Rating -->
  <rect x="125" y="600" width="70" height="22" fill="#fff3e0" rx="4"/>
  <text x="160" y="614" font-family="Arial, sans-serif" font-size="10" font-weight="bold" fill="#ff6f00" text-anchor="middle">Celebration</text>
  
  <circle cx="350" cy="563" r="22" fill="#ffb74d"/>
  <text x="350" y="570" font-family="Arial, sans-serif" font-size="12" font-weight="bold" fill="#333" text-anchor="middle">4.8</text>
  
  <!-- Result Card 3 -->
  <rect x="15" y="655" width="370" height="110" fill="#fff" stroke="#f0f0f0" stroke-width="1" rx="10"/>
  <rect x="15" y="655" width="100" height="110" fill="#ddd" rx="10"/>
  
  <text x="125" y="678" font-family="Arial, sans-serif" font-size="13" font-weight="bold" fill="#000">Special Occasions</text>
  <text x="125" y="697" font-family="Arial, sans-serif" font-size="11" fill="#666">Theme Cuisine • Customizable</text>
  <text x="125" y="715" font-family="Arial, sans-serif" font-size="10" fill="#999">40 mins • 1.5km • ₹400-800/person</text>
  
  <!-- Mood & Rating -->
  <rect x="125" y="725" width="70" height="22" fill="#fff3e0" rx="4"/>
  <text x="160" y="739" font-family="Arial, sans-serif" font-size="10" font-weight="bold" fill="#ff6f00" text-anchor="middle">Celebration</text>
  
  <circle cx="350" cy="688" r="22" fill="#ffb74d"/>
  <text x="350" y="695" font-family="Arial, sans-serif" font-size="12" font-weight="bold" fill="#333" text-anchor="middle">4.4</text>
  
  <!-- View More CTA -->
  <rect x="15" y="800" width="370" height="50" fill="#ff6f00" rx="10"/>
  <text x="200" y="835" font-family="Arial, sans-serif" font-size="15" font-weight="bold" fill="#fff" text-anchor="middle">See all 42 options</text>
  
  <!-- Bottom safe area -->
  <rect x="0" y="900" width="400" height="200" fill="#f5f5f5"/>
</svg>